<svg xmlns="http://www.w3.org/2000/svg" width="23" height="18" viewBox="0 0 23 18"><defs><mask id="xsn8b" width="2" height="2" x="-1" y="-1"><path fill="#fff" d="M0-1h24v18H0z"/><path d="M8.526 16.604a8.34 8.34 0 1 1 0-16.68 8.334 8.334 0 0 1 7.28 4.276c.347-.059.697-.106 1.06-.106a6.255 6.255 0 1 1 0 12.51h-8.34zm8.34-2.085a4.17 4.17 0 1 0 0-8.34c-.834 0-1.607.25-2.259.673-.642-2.772-3.114-4.843-6.08-4.843a6.255 6.255 0 0 0 0 12.51h8.34z"/></mask><filter id="xsn8a" width="44" height="39" x="-10" y="-11" filterUnits="userSpaceOnUse"><feOffset dy="1" in="SourceGraphic" result="FeOffset1163Out"/><feGaussianBlur in="FeOffset1163Out" result="FeGaussianBlur1164Out" stdDeviation="0 0"/></filter></defs><g><g><g filter="url(#xsn8a)"><path fill="none" d="M8.526 16.604a8.34 8.34 0 1 1 0-16.68 8.334 8.334 0 0 1 7.28 4.276c.347-.059.697-.106 1.06-.106a6.255 6.255 0 1 1 0 12.51h-8.34zm8.34-2.085a4.17 4.17 0 1 0 0-8.34c-.834 0-1.607.25-2.259.673-.642-2.772-3.114-4.843-6.08-4.843a6.255 6.255 0 0 0 0 12.51h8.34z" mask="url(&quot;#xsn8b&quot;)"/><path fill="#dc3d66" fill-opacity=".75" d="M8.526 16.604a8.34 8.34 0 1 1 0-16.68 8.334 8.334 0 0 1 7.28 4.276c.347-.059.697-.106 1.06-.106a6.255 6.255 0 1 1 0 12.51h-8.34zm8.34-2.085a4.17 4.17 0 1 0 0-8.34c-.834 0-1.607.25-2.259.673-.642-2.772-3.114-4.843-6.08-4.843a6.255 6.255 0 0 0 0 12.51h8.34z"/></g><path fill="#fff" d="M8.526 16.604a8.34 8.34 0 1 1 0-16.68 8.334 8.334 0 0 1 7.28 4.276c.347-.059.697-.106 1.06-.106a6.255 6.255 0 1 1 0 12.51h-8.34zm8.34-2.085a4.17 4.17 0 1 0 0-8.34c-.834 0-1.607.25-2.259.673-.642-2.772-3.114-4.843-6.08-4.843a6.255 6.255 0 0 0 0 12.51h8.34z"/></g></g></svg>