<svg xmlns="http://www.w3.org/2000/svg" width="88" height="65" viewBox="0 0 88 65"><defs><mask id="vlt0b" width="2" height="2" x="-1" y="-1"><path fill="#fff" d="M0 0h88v64H0z"/><path d="M32.371 63.13C14.935 63.13.801 48.993.801 31.557S14.934-.012 32.37-.012c11.848 0 22.159 6.535 27.559 16.19 1.31-.226 2.638-.405 4.012-.405 13.077 0 23.678 10.6 23.678 23.678 0 13.077-10.6 23.678-23.678 23.678h-31.57zm31.571-7.894c8.718 0 15.786-7.067 15.786-15.785S72.66 23.665 63.942 23.665c-3.158 0-6.084.95-8.552 2.548C52.96 15.72 43.603 7.88 32.371 7.88c-13.077 0-23.678 10.601-23.678 23.678s10.601 23.678 23.678 23.678h31.571z"/></mask><filter id="vlt0a" width="108" height="85" x="-10" y="-10" filterUnits="userSpaceOnUse"><feOffset dy="1" in="SourceGraphic" result="FeOffset1123Out"/><feGaussianBlur in="FeOffset1123Out" result="FeGaussianBlur1124Out" stdDeviation="0 0"/></filter></defs><g><g><g filter="url(#vlt0a)"><path fill="none" d="M32.371 63.13C14.935 63.13.801 48.993.801 31.557S14.934-.012 32.37-.012c11.848 0 22.159 6.535 27.559 16.19 1.31-.226 2.638-.405 4.012-.405 13.077 0 23.678 10.6 23.678 23.678 0 13.077-10.6 23.678-23.678 23.678h-31.57zm31.571-7.894c8.718 0 15.786-7.067 15.786-15.785S72.66 23.665 63.942 23.665c-3.158 0-6.084.95-8.552 2.548C52.96 15.72 43.603 7.88 32.371 7.88c-13.077 0-23.678 10.601-23.678 23.678s10.601 23.678 23.678 23.678h31.571z" mask="url(&quot;#vlt0b&quot;)"/><path fill="#bd54cd" fill-opacity=".75" d="M32.371 63.13C14.935 63.13.801 48.993.801 31.557S14.934-.012 32.37-.012c11.848 0 22.159 6.535 27.559 16.19 1.31-.226 2.638-.405 4.012-.405 13.077 0 23.678 10.6 23.678 23.678 0 13.077-10.6 23.678-23.678 23.678h-31.57zm31.571-7.894c8.718 0 15.786-7.067 15.786-15.785S72.66 23.665 63.942 23.665c-3.158 0-6.084.95-8.552 2.548C52.96 15.72 43.603 7.88 32.371 7.88c-13.077 0-23.678 10.601-23.678 23.678s10.601 23.678 23.678 23.678h31.571z"/></g><path fill="#fff" d="M32.371 63.13C14.935 63.13.801 48.993.801 31.557S14.934-.012 32.37-.012c11.848 0 22.159 6.535 27.559 16.19 1.31-.226 2.638-.405 4.012-.405 13.077 0 23.678 10.6 23.678 23.678 0 13.077-10.6 23.678-23.678 23.678h-31.57zm31.571-7.894c8.718 0 15.786-7.067 15.786-15.785S72.66 23.665 63.942 23.665c-3.158 0-6.084.95-8.552 2.548C52.96 15.72 43.603 7.88 32.371 7.88c-13.077 0-23.678 10.601-23.678 23.678s10.601 23.678 23.678 23.678h31.571z"/></g></g></svg>