<svg xmlns="http://www.w3.org/2000/svg" width="81" height="75" viewBox="0 0 81 75"><defs><mask id="wkdqb" width="2" height="2" x="-1" y="-1"><path fill="#fff" d="M0 0h81v74H0z"/><path d="M77.253 59.006H3.72a3.677 3.677 0 1 1 0-7.353h73.533a3.677 3.677 0 0 1 0 7.353zm0-14.706H3.72a3.677 3.677 0 1 1 0-7.354h73.533a3.677 3.677 0 0 1 0 7.354zM58.869 22.24c-2.942 0-5.668.885-7.967 2.373-2.265-9.775-10.982-17.08-21.446-17.08-12.183 0-22.06 9.877-22.06 22.06H.043C.043 13.35 13.212.18 29.456.18 40.495.18 50.1 6.269 55.131 15.263c1.221-.209 2.458-.376 3.738-.376 9.601 0 17.747 6.144 20.778 14.706h-8.054c-2.544-4.391-7.283-7.353-12.724-7.353zM3.72 66.36h73.534a3.677 3.677 0 0 1 0 7.353H3.72a3.677 3.677 0 1 1 0-7.353z"/></mask><filter id="wkdqa" width="101" height="95" x="-10" y="-10" filterUnits="userSpaceOnUse"><feOffset dy="1" in="SourceGraphic" result="FeOffset1043Out"/><feGaussianBlur in="FeOffset1043Out" result="FeGaussianBlur1044Out" stdDeviation="0 0"/></filter></defs><g><g><g filter="url(#wkdqa)"><path fill="none" d="M77.253 59.006H3.72a3.677 3.677 0 1 1 0-7.353h73.533a3.677 3.677 0 0 1 0 7.353zm0-14.706H3.72a3.677 3.677 0 1 1 0-7.354h73.533a3.677 3.677 0 0 1 0 7.354zM58.869 22.24c-2.942 0-5.668.885-7.967 2.373-2.265-9.775-10.982-17.08-21.446-17.08-12.183 0-22.06 9.877-22.06 22.06H.043C.043 13.35 13.212.18 29.456.18 40.495.18 50.1 6.269 55.131 15.263c1.221-.209 2.458-.376 3.738-.376 9.601 0 17.747 6.144 20.778 14.706h-8.054c-2.544-4.391-7.283-7.353-12.724-7.353zM3.72 66.36h73.534a3.677 3.677 0 0 1 0 7.353H3.72a3.677 3.677 0 1 1 0-7.353z" mask="url(&quot;#wkdqb&quot;)"/><path fill="#4dd184" fill-opacity=".75" d="M77.253 59.006H3.72a3.677 3.677 0 1 1 0-7.353h73.533a3.677 3.677 0 0 1 0 7.353zm0-14.706H3.72a3.677 3.677 0 1 1 0-7.354h73.533a3.677 3.677 0 0 1 0 7.354zM58.869 22.24c-2.942 0-5.668.885-7.967 2.373-2.265-9.775-10.982-17.08-21.446-17.08-12.183 0-22.06 9.877-22.06 22.06H.043C.043 13.35 13.212.18 29.456.18 40.495.18 50.1 6.269 55.131 15.263c1.221-.209 2.458-.376 3.738-.376 9.601 0 17.747 6.144 20.778 14.706h-8.054c-2.544-4.391-7.283-7.353-12.724-7.353zM3.72 66.36h73.534a3.677 3.677 0 0 1 0 7.353H3.72a3.677 3.677 0 1 1 0-7.353z"/></g><path fill="#fff" d="M77.253 59.006H3.72a3.677 3.677 0 1 1 0-7.353h73.533a3.677 3.677 0 0 1 0 7.353zm0-14.706H3.72a3.677 3.677 0 1 1 0-7.354h73.533a3.677 3.677 0 0 1 0 7.354zM58.869 22.24c-2.942 0-5.668.885-7.967 2.373-2.265-9.775-10.982-17.08-21.446-17.08-12.183 0-22.06 9.877-22.06 22.06H.043C.043 13.35 13.212.18 29.456.18 40.495.18 50.1 6.269 55.131 15.263c1.221-.209 2.458-.376 3.738-.376 9.601 0 17.747 6.144 20.778 14.706h-8.054c-2.544-4.391-7.283-7.353-12.724-7.353zM3.72 66.36h73.534a3.677 3.677 0 0 1 0 7.353H3.72a3.677 3.677 0 1 1 0-7.353z"/></g></g></svg>