<svg xmlns="http://www.w3.org/2000/svg" width="23" height="21" viewBox="0 0 23 21"><defs><mask id="so3wb" width="2" height="2" x="-1" y="-1"><path fill="#fff" d="M0 0h23v20H0z"/><path d="M16.572 16.632h-.518c0-.711-.165-1.42-.488-2.071h1.006a4.142 4.142 0 1 0 0-8.285c-.829 0-1.597.25-2.244.669-.638-2.753-3.093-4.81-6.04-4.81A6.21 6.21 0 1 0 7.266 14.47c-.33.63-.502 1.319-.524 2.012C2.906 15.757.004 12.394.004 8.347A8.284 8.284 0 0 1 8.288.063a8.278 8.278 0 0 1 7.231 4.249 6.195 6.195 0 0 1 1.053-.107 6.213 6.213 0 1 1 0 12.427zm-5.178-3.661l1.83 1.83a2.589 2.589 0 1 1-3.66 0z"/></mask><filter id="so3wa" width="43" height="41" x="-10" y="-10" filterUnits="userSpaceOnUse"><feOffset dy="1" in="SourceGraphic" result="FeOffset1143Out"/><feGaussianBlur in="FeOffset1143Out" result="FeGaussianBlur1144Out" stdDeviation="0 0"/></filter></defs><g><g><g filter="url(#so3wa)"><path fill="none" d="M16.572 16.632h-.518c0-.711-.165-1.42-.488-2.071h1.006a4.142 4.142 0 1 0 0-8.285c-.829 0-1.597.25-2.244.669-.638-2.753-3.093-4.81-6.04-4.81A6.21 6.21 0 1 0 7.266 14.47c-.33.63-.502 1.319-.524 2.012C2.906 15.757.004 12.394.004 8.347A8.284 8.284 0 0 1 8.288.063a8.278 8.278 0 0 1 7.231 4.249 6.195 6.195 0 0 1 1.053-.107 6.213 6.213 0 1 1 0 12.427zm-5.178-3.661l1.83 1.83a2.589 2.589 0 1 1-3.66 0z" mask="url(&quot;#so3wb&quot;)"/><path fill="#dc3d66" fill-opacity=".75" d="M16.572 16.632h-.518c0-.711-.165-1.42-.488-2.071h1.006a4.142 4.142 0 1 0 0-8.285c-.829 0-1.597.25-2.244.669-.638-2.753-3.093-4.81-6.04-4.81A6.21 6.21 0 1 0 7.266 14.47c-.33.63-.502 1.319-.524 2.012C2.906 15.757.004 12.394.004 8.347A8.284 8.284 0 0 1 8.288.063a8.278 8.278 0 0 1 7.231 4.249 6.195 6.195 0 0 1 1.053-.107 6.213 6.213 0 1 1 0 12.427zm-5.178-3.661l1.83 1.83a2.589 2.589 0 1 1-3.66 0z"/></g><path fill="#fff" d="M16.572 16.632h-.518c0-.711-.165-1.42-.488-2.071h1.006a4.142 4.142 0 1 0 0-8.285c-.829 0-1.597.25-2.244.669-.638-2.753-3.093-4.81-6.04-4.81A6.21 6.21 0 1 0 7.266 14.47c-.33.63-.502 1.319-.524 2.012C2.906 15.757.004 12.394.004 8.347A8.284 8.284 0 0 1 8.288.063a8.278 8.278 0 0 1 7.231 4.249 6.195 6.195 0 0 1 1.053-.107 6.213 6.213 0 1 1 0 12.427zm-5.178-3.661l1.83 1.83a2.589 2.589 0 1 1-3.66 0z"/></g></g></svg>