<svg xmlns="http://www.w3.org/2000/svg" width="90" height="77" viewBox="0 0 90 77"><defs><mask id="1nk5b" width="2" height="2" x="-1" y="-1"><path fill="#fff" d="M0 0h90v76H0z"/><path d="M65.393 65.444H63.35c0-2.805-.653-5.604-1.928-8.172h3.97c9.027 0 16.345-7.318 16.345-16.345S74.42 24.582 65.393 24.582c-3.27 0-6.3.984-8.855 2.638C54.02 16.356 44.333 8.238 32.703 8.238c-13.54 0-24.517 10.976-24.517 24.517 0 12.163 8.867 22.23 20.483 24.157a18.351 18.351 0 0 0-2.067 7.942C11.468 61.994.014 48.721.014 32.754.014 14.702 14.65.066 32.704.066c12.267 0 22.942 6.768 28.534 16.764 1.357-.233 2.731-.419 4.155-.419 13.54 0 24.516 10.977 24.516 24.517S78.933 65.444 65.393 65.444zM44.962 50.997l7.223 7.224c3.99 3.989 3.99 10.457 0 14.446-3.99 3.99-10.457 3.99-14.447 0-3.989-3.99-3.989-10.457 0-14.446z"/></mask><filter id="1nk5a" width="110" height="97" x="-10" y="-10" filterUnits="userSpaceOnUse"><feOffset dy="1" in="SourceGraphic" result="FeOffset1023Out"/><feGaussianBlur in="FeOffset1023Out" result="FeGaussianBlur1024Out" stdDeviation="0 0"/></filter></defs><g><g><g filter="url(#1nk5a)"><path fill="none" d="M65.393 65.444H63.35c0-2.805-.653-5.604-1.928-8.172h3.97c9.027 0 16.345-7.318 16.345-16.345S74.42 24.582 65.393 24.582c-3.27 0-6.3.984-8.855 2.638C54.02 16.356 44.333 8.238 32.703 8.238c-13.54 0-24.517 10.976-24.517 24.517 0 12.163 8.867 22.23 20.483 24.157a18.351 18.351 0 0 0-2.067 7.942C11.468 61.994.014 48.721.014 32.754.014 14.702 14.65.066 32.704.066c12.267 0 22.942 6.768 28.534 16.764 1.357-.233 2.731-.419 4.155-.419 13.54 0 24.516 10.977 24.516 24.517S78.933 65.444 65.393 65.444zM44.962 50.997l7.223 7.224c3.99 3.989 3.99 10.457 0 14.446-3.99 3.99-10.457 3.99-14.447 0-3.989-3.99-3.989-10.457 0-14.446z" mask="url(&quot;#1nk5b&quot;)"/><path fill="#06b3db" fill-opacity=".75" d="M65.393 65.444H63.35c0-2.805-.653-5.604-1.928-8.172h3.97c9.027 0 16.345-7.318 16.345-16.345S74.42 24.582 65.393 24.582c-3.27 0-6.3.984-8.855 2.638C54.02 16.356 44.333 8.238 32.703 8.238c-13.54 0-24.517 10.976-24.517 24.517 0 12.163 8.867 22.23 20.483 24.157a18.351 18.351 0 0 0-2.067 7.942C11.468 61.994.014 48.721.014 32.754.014 14.702 14.65.066 32.704.066c12.267 0 22.942 6.768 28.534 16.764 1.357-.233 2.731-.419 4.155-.419 13.54 0 24.516 10.977 24.516 24.517S78.933 65.444 65.393 65.444zM44.962 50.997l7.223 7.224c3.99 3.989 3.99 10.457 0 14.446-3.99 3.99-10.457 3.99-14.447 0-3.989-3.99-3.989-10.457 0-14.446z"/></g><path fill="#fff" d="M65.393 65.444H63.35c0-2.805-.653-5.604-1.928-8.172h3.97c9.027 0 16.345-7.318 16.345-16.345S74.42 24.582 65.393 24.582c-3.27 0-6.3.984-8.855 2.638C54.02 16.356 44.333 8.238 32.703 8.238c-13.54 0-24.517 10.976-24.517 24.517 0 12.163 8.867 22.23 20.483 24.157a18.351 18.351 0 0 0-2.067 7.942C11.468 61.994.014 48.721.014 32.754.014 14.702 14.65.066 32.704.066c12.267 0 22.942 6.768 28.534 16.764 1.357-.233 2.731-.419 4.155-.419 13.54 0 24.516 10.977 24.516 24.517S78.933 65.444 65.393 65.444zM44.962 50.997l7.223 7.224c3.99 3.989 3.99 10.457 0 14.446-3.99 3.99-10.457 3.99-14.447 0-3.989-3.99-3.989-10.457 0-14.446z"/></g></g></svg>