<svg xmlns="http://www.w3.org/2000/svg" width="24" height="23" viewBox="0 0 24 23"><defs><mask id="gafmb" width="2" height="2" x="-1" y="-1"><path fill="#fff" d="M0 0h24v22H0z"/><path d="M23.144 11.76h-1.723a.862.862 0 0 1 0-1.725h1.723a.862.862 0 1 1 0 1.724zM19.758 6.02a.862.862 0 0 1-1.22-1.219l1.22-1.219a.862.862 0 1 1 1.219 1.22zm-1.27 6.727a5.172 5.172 0 0 1-3.963 8.492H7.629A6.896 6.896 0 1 1 9.58 7.733a5.158 5.158 0 0 1 4.084-2.007 5.172 5.172 0 0 1 5.172 5.172 5.15 5.15 0 0 1-.347 1.851zm-16.03 1.597a5.172 5.172 0 0 0 5.171 5.172h6.896a3.448 3.448 0 1 0 0-6.896c-.69 0-1.33.208-1.868.556a5.166 5.166 0 0 0-10.2 1.168zm11.205-6.896c-.954 0-1.817.388-2.44 1.013a6.937 6.937 0 0 1 2.425 2.523c.287-.049.577-.088.877-.088.916 0 1.775.24 2.521.659a3.448 3.448 0 0 0-3.383-4.106zm0-3.448a.862.862 0 0 1-.862-.861V1.416a.862.862 0 1 1 1.724 0V3.14a.862.862 0 0 1-.862.861zm-6.095 2.02L6.349 4.802a.862.862 0 0 1 1.219-1.219l1.219 1.22a.862.862 0 1 1-1.22 1.218z"/></mask><filter id="gafma" width="44" height="43" x="-10" y="-10" filterUnits="userSpaceOnUse"><feOffset dy="1" in="SourceGraphic" result="FeOffset1183Out"/><feGaussianBlur in="FeOffset1183Out" result="FeGaussianBlur1184Out" stdDeviation="0 0"/></filter></defs><g><g><g filter="url(#gafma)"><path fill="none" d="M23.144 11.76h-1.723a.862.862 0 0 1 0-1.725h1.723a.862.862 0 1 1 0 1.724zM19.758 6.02a.862.862 0 0 1-1.22-1.219l1.22-1.219a.862.862 0 1 1 1.219 1.22zm-1.27 6.727a5.172 5.172 0 0 1-3.963 8.492H7.629A6.896 6.896 0 1 1 9.58 7.733a5.158 5.158 0 0 1 4.084-2.007 5.172 5.172 0 0 1 5.172 5.172 5.15 5.15 0 0 1-.347 1.851zm-16.03 1.597a5.172 5.172 0 0 0 5.171 5.172h6.896a3.448 3.448 0 1 0 0-6.896c-.69 0-1.33.208-1.868.556a5.166 5.166 0 0 0-10.2 1.168zm11.205-6.896c-.954 0-1.817.388-2.44 1.013a6.937 6.937 0 0 1 2.425 2.523c.287-.049.577-.088.877-.088.916 0 1.775.24 2.521.659a3.448 3.448 0 0 0-3.383-4.106zm0-3.448a.862.862 0 0 1-.862-.861V1.416a.862.862 0 1 1 1.724 0V3.14a.862.862 0 0 1-.862.861zm-6.095 2.02L6.349 4.802a.862.862 0 0 1 1.219-1.219l1.219 1.22a.862.862 0 1 1-1.22 1.218z" mask="url(&quot;#gafmb&quot;)"/><path fill="#dc3d66" fill-opacity=".75" d="M23.144 11.76h-1.723a.862.862 0 0 1 0-1.725h1.723a.862.862 0 1 1 0 1.724zM19.758 6.02a.862.862 0 0 1-1.22-1.219l1.22-1.219a.862.862 0 1 1 1.219 1.22zm-1.27 6.727a5.172 5.172 0 0 1-3.963 8.492H7.629A6.896 6.896 0 1 1 9.58 7.733a5.158 5.158 0 0 1 4.084-2.007 5.172 5.172 0 0 1 5.172 5.172 5.15 5.15 0 0 1-.347 1.851zm-16.03 1.597a5.172 5.172 0 0 0 5.171 5.172h6.896a3.448 3.448 0 1 0 0-6.896c-.69 0-1.33.208-1.868.556a5.166 5.166 0 0 0-10.2 1.168zm11.205-6.896c-.954 0-1.817.388-2.44 1.013a6.937 6.937 0 0 1 2.425 2.523c.287-.049.577-.088.877-.088.916 0 1.775.24 2.521.659a3.448 3.448 0 0 0-3.383-4.106zm0-3.448a.862.862 0 0 1-.862-.861V1.416a.862.862 0 1 1 1.724 0V3.14a.862.862 0 0 1-.862.861zm-6.095 2.02L6.349 4.802a.862.862 0 0 1 1.219-1.219l1.219 1.22a.862.862 0 1 1-1.22 1.218z"/></g><path fill="#fff" d="M23.144 11.76h-1.723a.862.862 0 0 1 0-1.725h1.723a.862.862 0 1 1 0 1.724zM19.758 6.02a.862.862 0 0 1-1.22-1.219l1.22-1.219a.862.862 0 1 1 1.219 1.22zm-1.27 6.727a5.172 5.172 0 0 1-3.963 8.492H7.629A6.896 6.896 0 1 1 9.58 7.733a5.158 5.158 0 0 1 4.084-2.007 5.172 5.172 0 0 1 5.172 5.172 5.15 5.15 0 0 1-.347 1.851zm-16.03 1.597a5.172 5.172 0 0 0 5.171 5.172h6.896a3.448 3.448 0 1 0 0-6.896c-.69 0-1.33.208-1.868.556a5.166 5.166 0 0 0-10.2 1.168zm11.205-6.896c-.954 0-1.817.388-2.44 1.013a6.937 6.937 0 0 1 2.425 2.523c.287-.049.577-.088.877-.088.916 0 1.775.24 2.521.659a3.448 3.448 0 0 0-3.383-4.106zm0-3.448a.862.862 0 0 1-.862-.861V1.416a.862.862 0 1 1 1.724 0V3.14a.862.862 0 0 1-.862.861zm-6.095 2.02L6.349 4.802a.862.862 0 0 1 1.219-1.219l1.219 1.22a.862.862 0 1 1-1.22 1.218z"/></g></g></svg>