<svg xmlns="http://www.w3.org/2000/svg" width="86" height="89" viewBox="0 0 86 89"><defs><mask id="dywzb" width="2" height="2" x="-1" y="-1"><path fill="#fff" d="M0 0h86v88H0z"/><path d="M82.033 40.873h-6.28a3.14 3.14 0 1 1 0-6.281h6.28a3.14 3.14 0 1 1 0 6.28zM69.694 19.966a3.14 3.14 0 0 1-4.441-4.441l4.441-4.441a3.14 3.14 0 0 1 4.442 4.441zm-4.628 24.51a18.76 18.76 0 0 1 4.405 12.1c0 8.2-5.248 15.158-12.562 17.748v-6.88c3.751-2.174 6.281-6.221 6.281-10.869 0-6.937-5.624-12.562-12.562-12.562-2.513 0-4.842.756-6.806 2.027-1.934-8.35-9.38-14.589-18.319-14.589-10.406 0-18.843 8.436-18.843 18.843 0 5.574 2.434 10.567 6.281 14.017v7.72C5.44 67.683.38 59.587.38 50.293c0-13.876 11.249-25.124 25.124-25.124 2.47 0 4.852.365 7.105 1.03 3.447-4.442 8.822-7.311 14.88-7.311 10.406 0 18.843 8.436 18.843 18.843 0 2.38-.46 4.648-1.265 6.745zM47.487 25.17a12.522 12.522 0 0 0-8.893 3.69 25.274 25.274 0 0 1 8.84 9.194c1.044-.179 2.1-.322 3.194-.322 3.338 0 6.468.876 9.187 2.399.15-.777.235-1.578.235-2.399 0-6.938-5.625-12.562-12.563-12.562zm0-12.562a3.14 3.14 0 0 1-3.14-3.141V3.186a3.14 3.14 0 1 1 6.28 0v6.281a3.14 3.14 0 0 1-3.14 3.14zM25.28 19.966l-4.441-4.441a3.14 3.14 0 0 1 4.441-4.441l4.442 4.441a3.14 3.14 0 0 1-4.442 4.441zm-2.917 42.89a3.14 3.14 0 1 1 0 6.282 3.14 3.14 0 0 1 0-6.281zm0 12.563a3.14 3.14 0 1 1 0 6.28 3.14 3.14 0 0 1 0-6.28zm12.562-6.281a3.14 3.14 0 1 1 0 6.28 3.14 3.14 0 0 1 0-6.28zm0 12.562a3.14 3.14 0 1 1 0 6.281 3.14 3.14 0 0 1 0-6.281zm12.562-18.843a3.14 3.14 0 1 1 0 6.28 3.14 3.14 0 0 1 0-6.28zm0 12.562a3.14 3.14 0 1 1 0 6.28 3.14 3.14 0 0 1 0-6.28z"/></mask><filter id="dywza" width="106" height="109" x="-10" y="-10" filterUnits="userSpaceOnUse"><feOffset dy="1" in="SourceGraphic" result="FeOffset1083Out"/><feGaussianBlur in="FeOffset1083Out" result="FeGaussianBlur1084Out" stdDeviation="0 0"/></filter></defs><g><g><g filter="url(#dywza)"><path fill="none" d="M82.033 40.873h-6.28a3.14 3.14 0 1 1 0-6.281h6.28a3.14 3.14 0 1 1 0 6.28zM69.694 19.966a3.14 3.14 0 0 1-4.441-4.441l4.441-4.441a3.14 3.14 0 0 1 4.442 4.441zm-4.628 24.51a18.76 18.76 0 0 1 4.405 12.1c0 8.2-5.248 15.158-12.562 17.748v-6.88c3.751-2.174 6.281-6.221 6.281-10.869 0-6.937-5.624-12.562-12.562-12.562-2.513 0-4.842.756-6.806 2.027-1.934-8.35-9.38-14.589-18.319-14.589-10.406 0-18.843 8.436-18.843 18.843 0 5.574 2.434 10.567 6.281 14.017v7.72C5.44 67.683.38 59.587.38 50.293c0-13.876 11.249-25.124 25.124-25.124 2.47 0 4.852.365 7.105 1.03 3.447-4.442 8.822-7.311 14.88-7.311 10.406 0 18.843 8.436 18.843 18.843 0 2.38-.46 4.648-1.265 6.745zM47.487 25.17a12.522 12.522 0 0 0-8.893 3.69 25.274 25.274 0 0 1 8.84 9.194c1.044-.179 2.1-.322 3.194-.322 3.338 0 6.468.876 9.187 2.399.15-.777.235-1.578.235-2.399 0-6.938-5.625-12.562-12.563-12.562zm0-12.562a3.14 3.14 0 0 1-3.14-3.141V3.186a3.14 3.14 0 1 1 6.28 0v6.281a3.14 3.14 0 0 1-3.14 3.14zM25.28 19.966l-4.441-4.441a3.14 3.14 0 0 1 4.441-4.441l4.442 4.441a3.14 3.14 0 0 1-4.442 4.441zm-2.917 42.89a3.14 3.14 0 1 1 0 6.282 3.14 3.14 0 0 1 0-6.281zm0 12.563a3.14 3.14 0 1 1 0 6.28 3.14 3.14 0 0 1 0-6.28zm12.562-6.281a3.14 3.14 0 1 1 0 6.28 3.14 3.14 0 0 1 0-6.28zm0 12.562a3.14 3.14 0 1 1 0 6.281 3.14 3.14 0 0 1 0-6.281zm12.562-18.843a3.14 3.14 0 1 1 0 6.28 3.14 3.14 0 0 1 0-6.28zm0 12.562a3.14 3.14 0 1 1 0 6.28 3.14 3.14 0 0 1 0-6.28z" mask="url(&quot;#dywzb&quot;)"/><path fill="#e3b63d" fill-opacity=".75" d="M82.033 40.873h-6.28a3.14 3.14 0 1 1 0-6.281h6.28a3.14 3.14 0 1 1 0 6.28zM69.694 19.966a3.14 3.14 0 0 1-4.441-4.441l4.441-4.441a3.14 3.14 0 0 1 4.442 4.441zm-4.628 24.51a18.76 18.76 0 0 1 4.405 12.1c0 8.2-5.248 15.158-12.562 17.748v-6.88c3.751-2.174 6.281-6.221 6.281-10.869 0-6.937-5.624-12.562-12.562-12.562-2.513 0-4.842.756-6.806 2.027-1.934-8.35-9.38-14.589-18.319-14.589-10.406 0-18.843 8.436-18.843 18.843 0 5.574 2.434 10.567 6.281 14.017v7.72C5.44 67.683.38 59.587.38 50.293c0-13.876 11.249-25.124 25.124-25.124 2.47 0 4.852.365 7.105 1.03 3.447-4.442 8.822-7.311 14.88-7.311 10.406 0 18.843 8.436 18.843 18.843 0 2.38-.46 4.648-1.265 6.745zM47.487 25.17a12.522 12.522 0 0 0-8.893 3.69 25.274 25.274 0 0 1 8.84 9.194c1.044-.179 2.1-.322 3.194-.322 3.338 0 6.468.876 9.187 2.399.15-.777.235-1.578.235-2.399 0-6.938-5.625-12.562-12.563-12.562zm0-12.562a3.14 3.14 0 0 1-3.14-3.141V3.186a3.14 3.14 0 1 1 6.28 0v6.281a3.14 3.14 0 0 1-3.14 3.14zM25.28 19.966l-4.441-4.441a3.14 3.14 0 0 1 4.441-4.441l4.442 4.441a3.14 3.14 0 0 1-4.442 4.441zm-2.917 42.89a3.14 3.14 0 1 1 0 6.282 3.14 3.14 0 0 1 0-6.281zm0 12.563a3.14 3.14 0 1 1 0 6.28 3.14 3.14 0 0 1 0-6.28zm12.562-6.281a3.14 3.14 0 1 1 0 6.28 3.14 3.14 0 0 1 0-6.28zm0 12.562a3.14 3.14 0 1 1 0 6.281 3.14 3.14 0 0 1 0-6.281zm12.562-18.843a3.14 3.14 0 1 1 0 6.28 3.14 3.14 0 0 1 0-6.28zm0 12.562a3.14 3.14 0 1 1 0 6.28 3.14 3.14 0 0 1 0-6.28z"/></g><path fill="#fff" d="M82.033 40.873h-6.28a3.14 3.14 0 1 1 0-6.281h6.28a3.14 3.14 0 1 1 0 6.28zM69.694 19.966a3.14 3.14 0 0 1-4.441-4.441l4.441-4.441a3.14 3.14 0 0 1 4.442 4.441zm-4.628 24.51a18.76 18.76 0 0 1 4.405 12.1c0 8.2-5.248 15.158-12.562 17.748v-6.88c3.751-2.174 6.281-6.221 6.281-10.869 0-6.937-5.624-12.562-12.562-12.562-2.513 0-4.842.756-6.806 2.027-1.934-8.35-9.38-14.589-18.319-14.589-10.406 0-18.843 8.436-18.843 18.843 0 5.574 2.434 10.567 6.281 14.017v7.72C5.44 67.683.38 59.587.38 50.293c0-13.876 11.249-25.124 25.124-25.124 2.47 0 4.852.365 7.105 1.03 3.447-4.442 8.822-7.311 14.88-7.311 10.406 0 18.843 8.436 18.843 18.843 0 2.38-.46 4.648-1.265 6.745zM47.487 25.17a12.522 12.522 0 0 0-8.893 3.69 25.274 25.274 0 0 1 8.84 9.194c1.044-.179 2.1-.322 3.194-.322 3.338 0 6.468.876 9.187 2.399.15-.777.235-1.578.235-2.399 0-6.938-5.625-12.562-12.563-12.562zm0-12.562a3.14 3.14 0 0 1-3.14-3.141V3.186a3.14 3.14 0 1 1 6.28 0v6.281a3.14 3.14 0 0 1-3.14 3.14zM25.28 19.966l-4.441-4.441a3.14 3.14 0 0 1 4.441-4.441l4.442 4.441a3.14 3.14 0 0 1-4.442 4.441zm-2.917 42.89a3.14 3.14 0 1 1 0 6.282 3.14 3.14 0 0 1 0-6.281zm0 12.563a3.14 3.14 0 1 1 0 6.28 3.14 3.14 0 0 1 0-6.28zm12.562-6.281a3.14 3.14 0 1 1 0 6.28 3.14 3.14 0 0 1 0-6.28zm0 12.562a3.14 3.14 0 1 1 0 6.281 3.14 3.14 0 0 1 0-6.281zm12.562-18.843a3.14 3.14 0 1 1 0 6.28 3.14 3.14 0 0 1 0-6.28zm0 12.562a3.14 3.14 0 1 1 0 6.28 3.14 3.14 0 0 1 0-6.28z"/></g></g></svg>