<svg xmlns="http://www.w3.org/2000/svg" width="63" height="65" viewBox="0 0 63 65"><defs><mask id="4hslb" width="2" height="2" x="-1" y="-1"><path fill="#fff" d="M0 0h63v65H0z"/><path d="M56.713 50.154v.06H52.39a2.306 2.306 0 0 1 0-4.612h3.46a2.306 2.306 0 0 0 0-4.612 2.306 2.306 0 1 1 .464-4.565c3.6.243 6.453 3.21 6.453 6.871a6.915 6.915 0 0 1-6.053 6.859zm-6.296-23h.011c.245.694.444 1.41.577 2.149a11.453 11.453 0 0 0-5.591-2.093c-.011-.02-.025-.037-.037-.056h.003c-1.595-2.754-4.567-4.612-7.98-4.612a9.162 9.162 0 0 0-4.997 1.489c-1.42-6.131-6.888-10.713-13.45-10.713-7.642 0-13.837 6.195-13.837 13.836 0 7.642 6.195 13.836 13.836 13.836h25.366a2.306 2.306 0 1 0 0-4.612 2.306 2.306 0 1 1 .465-4.565c3.6.243 6.453 3.21 6.453 6.871a6.915 6.915 0 0 1-6.053 6.858v.06h-26.23a2.306 2.306 0 1 0 0 4.612h26.23v.06a6.915 6.915 0 0 1 6.053 6.858c0 3.662-2.853 6.628-6.453 6.871a2.306 2.306 0 1 1-.465-4.565 2.306 2.306 0 1 0 0-4.612h-26.23v-.06a6.915 6.915 0 0 1-6.054-6.858c0-1.217.339-2.344.892-3.333C5.701 42.075.504 35.23.504 27.155c0-10.19 8.26-18.449 18.448-18.449 2.309 0 4.514.433 6.55 1.208C27.386 4.515 32.51.635 38.552.635c.871 0 1.72.09 2.546.244a9.229 9.229 0 0 0-.24 2.062 9.224 9.224 0 0 0 9.224 9.224c.71 0 1.399-.088 2.062-.24.154.827.244 1.675.244 2.546 0 3.614-1.397 6.894-3.666 9.359a13.879 13.879 0 0 1 1.694 3.324zM36.491 5.487c-3.344.765-5.966 3.355-6.83 6.658a18.561 18.561 0 0 1 5.395 6.022c.765-.132 1.541-.237 2.344-.237 3.02 0 5.804.978 8.078 2.619a9.209 9.209 0 0 0 2.06-4.016A13.835 13.835 0 0 1 36.49 5.487z"/></mask><filter id="4hsla" width="83" height="86" x="-10" y="-10" filterUnits="userSpaceOnUse"><feOffset dy="1" in="SourceGraphic" result="FeOffset1103Out"/><feGaussianBlur in="FeOffset1103Out" result="FeGaussianBlur1104Out" stdDeviation="0 0"/></filter></defs><g><g><g filter="url(#4hsla)"><path fill="none" d="M56.713 50.154v.06H52.39a2.306 2.306 0 0 1 0-4.612h3.46a2.306 2.306 0 0 0 0-4.612 2.306 2.306 0 1 1 .464-4.565c3.6.243 6.453 3.21 6.453 6.871a6.915 6.915 0 0 1-6.053 6.859zm-6.296-23h.011c.245.694.444 1.41.577 2.149a11.453 11.453 0 0 0-5.591-2.093c-.011-.02-.025-.037-.037-.056h.003c-1.595-2.754-4.567-4.612-7.98-4.612a9.162 9.162 0 0 0-4.997 1.489c-1.42-6.131-6.888-10.713-13.45-10.713-7.642 0-13.837 6.195-13.837 13.836 0 7.642 6.195 13.836 13.836 13.836h25.366a2.306 2.306 0 1 0 0-4.612 2.306 2.306 0 1 1 .465-4.565c3.6.243 6.453 3.21 6.453 6.871a6.915 6.915 0 0 1-6.053 6.858v.06h-26.23a2.306 2.306 0 1 0 0 4.612h26.23v.06a6.915 6.915 0 0 1 6.053 6.858c0 3.662-2.853 6.628-6.453 6.871a2.306 2.306 0 1 1-.465-4.565 2.306 2.306 0 1 0 0-4.612h-26.23v-.06a6.915 6.915 0 0 1-6.054-6.858c0-1.217.339-2.344.892-3.333C5.701 42.075.504 35.23.504 27.155c0-10.19 8.26-18.449 18.448-18.449 2.309 0 4.514.433 6.55 1.208C27.386 4.515 32.51.635 38.552.635c.871 0 1.72.09 2.546.244a9.229 9.229 0 0 0-.24 2.062 9.224 9.224 0 0 0 9.224 9.224c.71 0 1.399-.088 2.062-.24.154.827.244 1.675.244 2.546 0 3.614-1.397 6.894-3.666 9.359a13.879 13.879 0 0 1 1.694 3.324zM36.491 5.487c-3.344.765-5.966 3.355-6.83 6.658a18.561 18.561 0 0 1 5.395 6.022c.765-.132 1.541-.237 2.344-.237 3.02 0 5.804.978 8.078 2.619a9.209 9.209 0 0 0 2.06-4.016A13.835 13.835 0 0 1 36.49 5.487z" mask="url(&quot;#4hslb&quot;)"/><path fill="#dc3d66" fill-opacity=".75" d="M56.713 50.154v.06H52.39a2.306 2.306 0 0 1 0-4.612h3.46a2.306 2.306 0 0 0 0-4.612 2.306 2.306 0 1 1 .464-4.565c3.6.243 6.453 3.21 6.453 6.871a6.915 6.915 0 0 1-6.053 6.859zm-6.296-23h.011c.245.694.444 1.41.577 2.149a11.453 11.453 0 0 0-5.591-2.093c-.011-.02-.025-.037-.037-.056h.003c-1.595-2.754-4.567-4.612-7.98-4.612a9.162 9.162 0 0 0-4.997 1.489c-1.42-6.131-6.888-10.713-13.45-10.713-7.642 0-13.837 6.195-13.837 13.836 0 7.642 6.195 13.836 13.836 13.836h25.366a2.306 2.306 0 1 0 0-4.612 2.306 2.306 0 1 1 .465-4.565c3.6.243 6.453 3.21 6.453 6.871a6.915 6.915 0 0 1-6.053 6.858v.06h-26.23a2.306 2.306 0 1 0 0 4.612h26.23v.06a6.915 6.915 0 0 1 6.053 6.858c0 3.662-2.853 6.628-6.453 6.871a2.306 2.306 0 1 1-.465-4.565 2.306 2.306 0 1 0 0-4.612h-26.23v-.06a6.915 6.915 0 0 1-6.054-6.858c0-1.217.339-2.344.892-3.333C5.701 42.075.504 35.23.504 27.155c0-10.19 8.26-18.449 18.448-18.449 2.309 0 4.514.433 6.55 1.208C27.386 4.515 32.51.635 38.552.635c.871 0 1.72.09 2.546.244a9.229 9.229 0 0 0-.24 2.062 9.224 9.224 0 0 0 9.224 9.224c.71 0 1.399-.088 2.062-.24.154.827.244 1.675.244 2.546 0 3.614-1.397 6.894-3.666 9.359a13.879 13.879 0 0 1 1.694 3.324zM36.491 5.487c-3.344.765-5.966 3.355-6.83 6.658a18.561 18.561 0 0 1 5.395 6.022c.765-.132 1.541-.237 2.344-.237 3.02 0 5.804.978 8.078 2.619a9.209 9.209 0 0 0 2.06-4.016A13.835 13.835 0 0 1 36.49 5.487z"/></g><path fill="#fff" d="M56.713 50.154v.06H52.39a2.306 2.306 0 0 1 0-4.612h3.46a2.306 2.306 0 0 0 0-4.612 2.306 2.306 0 1 1 .464-4.565c3.6.243 6.453 3.21 6.453 6.871a6.915 6.915 0 0 1-6.053 6.859zm-6.296-23h.011c.245.694.444 1.41.577 2.149a11.453 11.453 0 0 0-5.591-2.093c-.011-.02-.025-.037-.037-.056h.003c-1.595-2.754-4.567-4.612-7.98-4.612a9.162 9.162 0 0 0-4.997 1.489c-1.42-6.131-6.888-10.713-13.45-10.713-7.642 0-13.837 6.195-13.837 13.836 0 7.642 6.195 13.836 13.836 13.836h25.366a2.306 2.306 0 1 0 0-4.612 2.306 2.306 0 1 1 .465-4.565c3.6.243 6.453 3.21 6.453 6.871a6.915 6.915 0 0 1-6.053 6.858v.06h-26.23a2.306 2.306 0 1 0 0 4.612h26.23v.06a6.915 6.915 0 0 1 6.053 6.858c0 3.662-2.853 6.628-6.453 6.871a2.306 2.306 0 1 1-.465-4.565 2.306 2.306 0 1 0 0-4.612h-26.23v-.06a6.915 6.915 0 0 1-6.054-6.858c0-1.217.339-2.344.892-3.333C5.701 42.075.504 35.23.504 27.155c0-10.19 8.26-18.449 18.448-18.449 2.309 0 4.514.433 6.55 1.208C27.386 4.515 32.51.635 38.552.635c.871 0 1.72.09 2.546.244a9.229 9.229 0 0 0-.24 2.062 9.224 9.224 0 0 0 9.224 9.224c.71 0 1.399-.088 2.062-.24.154.827.244 1.675.244 2.546 0 3.614-1.397 6.894-3.666 9.359a13.879 13.879 0 0 1 1.694 3.324zM36.491 5.487c-3.344.765-5.966 3.355-6.83 6.658a18.561 18.561 0 0 1 5.395 6.022c.765-.132 1.541-.237 2.344-.237 3.02 0 5.804.978 8.078 2.619a9.209 9.209 0 0 0 2.06-4.016A13.835 13.835 0 0 1 36.49 5.487z"/></g></g></svg>